<svg width="48" height="48" viewBox="0 0 48 48" fill="none" xmlns="http://www.w3.org/2000/svg">
<rect width="48" height="48" rx="5.33333" fill="#262626"/>
<path fill-rule="evenodd" clip-rule="evenodd" d="M12.0202 39.263L10.549 36.8723C10.4267 36.6834 10.3909 36.4457 10.4499 36.2293C17.8493 9.02829 17.5188 8.73117 18.3192 8.30454C18.3581 8.28473 18.3982 8.26644 18.4385 8.25272C18.6515 8.18111 32.4649 8.18263 32.672 8.25577C32.8712 8.32434 33.0371 8.47061 33.1289 8.65955C33.1289 8.65955 34.6601 11.1767 34.6806 11.2635C34.8679 11.2696 34.9598 11.3016 35.1241 11.4312C35.2169 11.5043 36.7933 14.0626 36.7933 14.0626C36.9136 14.253 36.9499 14.4892 36.8909 14.7056C36.0649 17.7545 35.2347 20.8019 34.4004 23.8478C34.2406 24.4344 33.3581 24.5974 32.4647 24.605L33.4726 26.2522C33.5929 26.4426 33.6292 26.6788 33.5702 26.8952C32.4674 30.9604 31.3607 35.0226 30.2496 39.0847C29.9245 40.2778 26.6105 39.7186 26.2943 39.6653C26.0727 39.6287 24.2622 36.8723 24.2622 36.8723C23.8666 36.2552 24.1691 36.1684 26.5445 27.4879H19.6955C16.5148 39.007 16.8953 39.5007 15.8916 39.6668C15.595 39.7156 12.62 40.2047 12.0202 39.263ZM28.1659 24.0977L28.9961 21.0503H18.3302L20.8207 11.9081H31.4866L32.3168 8.86068H18.6035L11.132 36.2872H14.1794L17.5 24.0977H28.1659ZM31.4866 11.9081L28.9961 21.0503H32.0435L34.534 11.9081H31.4866ZM28.1659 24.0977L24.8452 36.2872H27.8926L31.2133 24.0977H28.1659ZM28.4935 20.3448C28.6974 19.5906 29.0936 18.1476 29.8667 15.2983H23.0162L21.6252 20.4042C25.5551 20.4088 27.4848 20.328 28.4935 20.3448Z" fill="#F2F2F2"/>
</svg>
